<?xml version="1.0" encoding="UTF-8"?><svg id="Layer_2" xmlns="http://www.w3.org/2000/svg" viewBox="0 0 32.57911 31.77461"><defs><style>.cls-1{fill:#191717;fill-rule:evenodd;}</style></defs><g id="Layer_1-2"><path class="cls-1" d="M16.2885,0C7.2939,0,0,7.293,0,16.2905c0,7.1963,4.667,13.3018,11.1406,15.4561,.81451,.1494,1.1118-.3535,1.1118-.7852,0-.3867-.0141-1.4111-.022-2.7705-4.5312,.9844-5.48729-2.1836-5.48729-2.1836-.74071-1.8818-1.80861-2.3828-1.80861-2.3828-1.479-1.0107,.1119-.9902,.1119-.9902,1.63471,.1152,2.4951,1.6787,2.4951,1.6787,1.4531,2.4893,3.8125,1.7705,4.7407,1.3535,.148-1.0527,.5688-1.7705,1.0342-2.1777-3.6172-.4111-7.4199-1.8086-7.4199-8.0508,0-1.7783,.6347-3.2324,1.6767-4.3711-.1675-.4121-.7265-2.0683,.1597-4.311,0,0,1.3677-.438,4.4795,1.6699,1.2993-.3613,2.6928-.542,4.0781-.5483,1.3833,.0063,2.7769,.187,4.0781,.5483,3.1099-2.1079,4.4751-1.6699,4.4751-1.6699,.8887,2.2427,.3296,3.8989,.1621,4.311,1.044,1.1387,1.6744,2.5928,1.6744,4.3711,0,6.2578-3.8086,7.6348-7.4375,8.0381,.5849,.5029,1.1059,1.4971,1.1059,3.0166,0,2.1777-.02,3.9346-.02,4.4687,0,.4356,.2934,.9424,1.1201,.7833,6.4673-2.1583,11.13041-8.2598,11.13041-15.4542C32.57911,7.293,25.28511,0,16.2885,0Z"/></g></svg>